<svg width="842" height="261" viewBox="0 0 842 261" fill="none"
  xmlns="http://www.w3.org/2000/svg">
  <path d="M245.655 93.4885H273.624L296.751 138.4L319.341 93.4885H347.31V186H319.341V136.652L302.265 168.923H290.835L273.624 136.652V186H245.655V93.4885ZM364.887 93.4885H395.948V186H364.887V93.4885ZM457.039 188.151C448.075 188.151 439.917 186.045 432.567 181.832C425.306 177.529 419.524 171.702 415.221 164.351C411.008 156.911 408.901 148.709 408.901 139.744C408.901 130.601 410.963 122.354 415.086 115.003C419.21 107.652 424.857 101.915 432.029 97.7914C439.2 93.5782 447.268 91.4716 456.232 91.4716C461.073 91.4716 465.824 92.0543 470.486 93.2196C475.147 94.385 479.136 96.0434 482.453 98.1948L478.822 119.037C472.368 116.616 466.541 115.406 461.342 115.406C454.171 115.406 448.658 117.513 444.803 121.726C440.948 125.85 439.021 131.811 439.021 139.61C439.021 147.229 441.038 153.191 445.072 157.494C449.196 161.707 454.888 163.813 462.149 163.813C464.928 163.813 467.527 163.544 469.948 163.007C472.368 162.469 475.326 161.483 478.822 160.048L482.587 181.294C474.789 185.866 466.272 188.151 457.039 188.151ZM512.105 93.4885H552.982L579.74 186H548.141L544.645 168.251H520.71L516.811 186H486.556L512.105 93.4885ZM541.418 151.712L532.678 111.238L523.534 151.712H541.418ZM658.7 188.151C641.847 188.151 631.538 180.352 627.773 164.755L624.412 150.905H618.092V186H588.644V93.4885H629.387C637.096 93.4885 643.864 94.6539 649.691 96.9846C655.607 99.2257 660.179 102.408 663.406 106.532C666.633 110.655 668.247 115.406 668.247 120.785C668.247 126.791 666.768 131.856 663.81 135.979C660.941 140.013 656.459 143.33 650.363 145.93C650.991 149.336 651.708 152.429 652.515 155.208C653.59 158.614 655.069 160.99 656.952 162.334C658.834 163.679 661.569 164.351 665.154 164.351C666.409 164.351 668.381 164.172 671.071 163.813V185.731C666.858 187.345 662.734 188.151 658.7 188.151ZM623.201 132.08C629.835 132.08 634.496 131.363 637.186 129.928C639.965 128.404 641.354 125.85 641.354 122.264C641.354 119.216 640.234 117.02 637.993 115.675C635.751 114.241 632.211 113.524 627.37 113.524H618.092V132.08H623.201ZM682.533 93.4885H715.88C729.685 93.4885 740.352 96.1778 747.882 101.556C755.502 106.935 759.312 114.465 759.312 124.146C759.312 130.242 757.429 135.576 753.664 140.148C749.989 144.719 744.924 148.26 738.47 150.77C732.105 153.191 725.024 154.401 717.225 154.401H711.577V186H682.533V93.4885ZM717.359 135.71C722.11 135.71 725.785 134.724 728.385 132.752C730.985 130.78 732.285 127.911 732.285 124.146C732.285 120.381 730.985 117.558 728.385 115.675C725.875 113.793 722.2 112.851 717.359 112.851H711.577V135.441C713.37 135.621 715.297 135.71 717.359 135.71ZM769.856 93.4885H834.802V113.927H802.531V130.735H831.978V147.678H802.531V165.561H834.802V186H769.856V93.4885Z" fill="white"/>
  <path d="M226 0L115 67.5V261H226V0Z" fill="white"/>
  <path d="M0 0L111 67.5V261H0V0Z" fill="white"/>
</svg>
